/* XPM */
static char *_56c754e1d994fcc8f7ff8c664c04f7b_2[] = {
/* columns rows colors chars-per-pixel */
"21 19 2 1 ",
"  c None",
". c #557AE0",
/* pixels */
"                     ",
"            ..   ....",
"            ... .... ",
" ..           .. ..  ",
" ... ....    .. .    ",
"  ......    .......  ",
" ..  ..     ..  .... ",
"........             ",
" .. ...              ",
"              ...    ",
"             ...     ",
"            ....     ",
"     ...   .....     ",
"     ..........      ",
"      ..... ..       ",
"       ..  .......   ",
"        .........    ",
"       ....  ...     ",
"      ....           "
};
