/* XPM */
static char *_146a7c84a8c466eba0c6f3ce157b487_0[] = {
/* columns rows colors chars-per-pixel */
"24 24 2 1 ",
"  c None",
". c #EDE285",
/* pixels */
"  ..................    ",
" .....................  ",
" ...................... ",
"........................",
"........................",
"........................",
".........  .............",
"  .......  ..........  .",
"  .......  .  .  ....  .",
"  .......  .  .   ...  .",
"  .......  .  .   ..  ..",
"   .....   .  .    .  ..",
".  ..  .  ..  .       ..",
".  .   .  ..  .  .    ..",
".         ..  .  ..   ..",
"..        ..  .  ..   ..",
"..   .   ...  .  ...  ..",
"..  ..   ...  .  .......",
"........................",
"........................",
" .......................",
" ...................... ",
"  ..................... ",
"    ..................  "
};
