/* XPM */
static char *_8932_0e67a49bc6b81d2c45e5fd68db1efcae57a3374b82c2d18492799a94677fbfec_0[] = {
/* columns rows colors chars-per-pixel */
"24 24 2 1 ",
"  c None",
". c white",
/* pixels */
"                        ",
"                        ",
"             ...        ",
"            .....       ",
"           .....        ",
"          ....          ",
"          ...           ",
"         ...            ",
"        ....            ",
"        ...             ",
"        ...             ",
"       ........         ",
"       .........        ",
"       ..........       ",
"       .....  ...       ",
"       ...    ...       ",
"       ...     ...      ",
"       ...     ...      ",
"       ....  ....       ",
"        .........       ",
"         .......        ",
"          ....          ",
"                        ",
"                        "
};
