/* XPM */
static char *_8420_6f409638aaa57a6bb28a4083c8594f1470a3ad32cadaf778e8b53a01578318f4_2[] = {
/* columns rows colors chars-per-pixel */
"7 7 2 1 ",
"  c None",
". c white",
/* pixels */
"       ",
"  .... ",
" ......",
".......",
".......",
" ..... ",
"  .... "
};
