/* XPM */
static char *_546_482d8cb19cb381170d746e99811018a849aa80bc8dea81cd798936f80ff81f15_2[] = {
/* columns rows colors chars-per-pixel */
"24 24 2 1 ",
"  c None",
". c white",
/* pixels */
"                        ",
"           ....         ",
"         .......        ",
"        .........       ",
"       ....   ...       ",
"      ....    ....      ",
"      ...     ....      ",
"      ...     ...       ",
"      ...   .....       ",
"       .........        ",
"       ........         ",
"        .......         ",
"        .........       ",
"       ...   .....      ",
"      ....    .....     ",
"      ...      ....     ",
"      ...      ....     ",
"      ....     ....     ",
"       .....   ...      ",
"        ..........      ",
"         ........       ",
"            ....        ",
"                        ",
"                        "
};
