/* XPM */
static char *_2766_c106b85f45fcc33fad51277662cb474d7b4bcf503dd15a5313a206b40127ef33_1[] = {
/* columns rows colors chars-per-pixel */
"24 24 2 1 ",
"  c None",
". c white",
/* pixels */
"                        ",
"                        ",
"        .....           ",
"       .......          ",
"      .........         ",
"      ...   ....        ",
"     ....    ...        ",
"     ...     ....       ",
"     ...      ...       ",
"     .....    ...       ",
"      ...........       ",
"       ..........       ",
"         ........       ",
"             ....       ",
"             ...        ",
"             ...        ",
"             ..         ",
"            ...         ",
"          .....         ",
"        ......          ",
"       ......           ",
"        ..              ",
"                        ",
"                        "
};
