/* XPM */
static char *_cb97e19ee07454cbc03eb033fb3195a_2[] = {
/* columns rows colors chars-per-pixel */
"24 24 2 1 ",
"  c None",
". c #5F9DD1",
/* pixels */
"          ....          ",
"        .......         ",
"    ............  ...   ",
"   ...................  ",
"  ..................... ",
"  ..................... ",
" ...................... ",
" .......................",
" .......................",
"........................",
"........................",
"........................",
"....................... ",
"....................... ",
"........................",
" .......................",
" .......................",
"  ..................... ",
"   .................... ",
"   .................... ",
"   ...................  ",
"    .................   ",
"      ..............    ",
"       .......          "
};
