/* XPM */
static char *abc1c7b8b31b4ab69c7af92068e091ad_1[] = {
/* columns rows colors chars-per-pixel */
"19 17 2 1 ",
"  c None",
". c #5C8339",
/* pixels */
"              ...  ",
"             ..... ",
"               ..  ",
"              .... ",
"             ......",
"    .       .. .. .",
"   ..         ...  ",
"   ..        ......",
"  ....      .. ....",
" .. ...        ..  ",
"   .. .        ..  ",
"  ...              ",
" .....             ",
".. .....           ",
"   ...             ",
" ......            ",
"........           "
};
