/* XPM */
static char *abc1c7b8b31b4ab69c7af92068e091ad_2[] = {
/* columns rows colors chars-per-pixel */
"19 21 2 1 ",
"  c None",
". c #5C8339",
/* pixels */
"                   ",
"                   ",
"               .   ",
"               ..  ",
"              .... ",
"             ......",
"               ..  ",
"               ... ",
"              .....",
"    .       .......",
"    .          ..  ",
"   ..         .... ",
"  ....       ......",
" ......     .....  ",
"   ..          ..  ",
"  ....             ",
"  .....            ",
".. .. ..           ",
"   ..              ",
"  ....             ",
".. .....           "
};
