/* XPM */
static char *_6032_4dc14587c214d75eb1b5f6136d364cf207d1ab6bb50cdddad896381568691d52_1[] = {
/* columns rows colors chars-per-pixel */
"24 24 2 1 ",
"  c None",
". c white",
/* pixels */
"                        ",
"          .....         ",
"        ........        ",
"       ..........       ",
"       ...    ...       ",
"        .     ...       ",
"              ...       ",
"              ...       ",
"             ....       ",
"            ....        ",
"           ......       ",
"            ......      ",
"              ....      ",
"                ...     ",
"                ...     ",
"                 ...    ",
"         .       ...    ",
"        ...     ....    ",
"        ....  .....     ",
"         .........      ",
"          .......       ",
"            ...         ",
"                        ",
"                        "
};
