/* XPM */
static char *_42e7e1713bf4d8bb68ac1294ad639fc_0[] = {
/* columns rows colors chars-per-pixel */
"24 24 2 1 ",
"  c None",
". c #90673E",
/* pixels */
"                        ",
"       .                ",
"       .                ",
"       .                ",
"    . .. ..             ",
"    ......              ",
"     ...                ",
"      ..                ",
"      .                 ",
"     ..                 ",
"     ...                ",
"                        ",
"                   .    ",
"              .   ..    ",
"               . ..     ",
"               ....     ",
"               ......   ",
"                ...     ",
"                ...     ",
"                ..      ",
"               ....     ",
"               ....     ",
"                        ",
"                        "
};
