/* XPM */
static char *_42e7e1713bf4d8bb68ac1294ad639fc_1[] = {
/* columns rows colors chars-per-pixel */
"16 22 2 1 ",
"  c None",
". c #90673E",
/* pixels */
"                ",
"                ",
"   .            ",
"   .            ",
". ..            ",
".... ..         ",
" .....          ",
"  ..            ",
"  ..            ",
" ...            ",
"  ..            ",
"                ",
"              ..",
"             .. ",
"          .  .  ",
"          ....  ",
"            .. .",
"            ....",
"            ... ",
"             .  ",
"            ..  ",
"            ..  "
};
