/* XPM */
static char *_9221_aeca5dff4b37a6e603bdc374e15b55b50d686b90fac95273e1de827d0969eefe_0[] = {
/* columns rows colors chars-per-pixel */
"24 24 2 1 ",
"  c None",
". c #90673E",
/* pixels */
"                        ",
"                  ...   ",
"                 .....  ",
"                ......  ",
"                .....   ",
"               .....    ",
"               ....     ",
"              ...       ",
"            ....        ",
"           .....        ",
"          .....         ",
"         .....          ",
"        .....           ",
"       .....            ",
"      .....             ",
"     .....              ",
"    .....               ",
"    ....                ",
"   ....                 ",
"  ....                  ",
"  ...                   ",
"  ..                    ",
"                        ",
"                        "
};
