/* XPM */
static char *grass_frame_1[] = {
/* columns rows colors chars-per-pixel */
"64 64 2 1 ",
"  c #303824",
". c None",
/* pixels */
"................   ........  ........   ........................",
"................   ........  ........   ........................",
"................   ........  ........   ........................",
"................     ......  ........      .....................",
"................     ......  ........      .....................",
"..............     .....     ......        .....     ...  ......",
".............      .....     ......        .....     ...   .....",
".............      .....     ......        .....     ...   .....",
"........             ...     ...           ..        ...   .....",
"........             ...     ...           ..        ...   .....",
"........             ...      ..           ..        ...   .....",
".....   ...     ...  ...             ...           ..        ...",
".....   ...     ...  ...             ...           ..        ...",
".....   ...     ...     ..         .......      ...          ...",
".....   ...     ...     ...        ........     ...          ...",
".....   ...     ...     ...        ........     ...          ...",
"...  ......     .....   ...        ..   .....   ...     .....   ",
"...  ......     .....   ...        ..   .....   ...     .....   ",
"...  ......     .....   ...       ...   .....   ...     .....   ",
"........   ..   .....      ..   .....   .....   ...  ........   ",
"........   ..   .....      ..   .....   .....   ...  ........   ",
"  ......   ..........      ..   ...     ...........  ........   ",
"   .....   ..........      ..   ...     ...........  ........   ",
"   .....   ..........      ..   ...     ...........  ........   ",
"   .....     ......     .....           ........     ...   ..   ",
"   .....     ......     .....           ........     ...   ..   ",
"   .....      .....     ......          ........      ..   ..   ",
"                ...     ........           ..              ..   ",
"                ...     ........           ..              ..   ",
"..                    ..  ......      ..   ..              .....",
"...                  ...   .....     ...   ..              .....",
"...                  ...   .....     ...   ..              .....",
"...  ...           .....   .............           ..      ..   ",
"...  ...           .....   .............           ..      ..   ",
"...  ...          ......   .............           ...     ..   ",
"...  ...     ........      ........  ...     ...   .....   ..   ",
"...  ...     ........      ........  ...     ...   .....   ..   ",
"   ..        ...  ...        ......  .....   ...........        ",
"   ..        ...   ..        ......  ......  ...........        ",
"   ..        ...   ..        ......  ......  ...........        ",
"   ..              .....     ...     ......     ...  ......     ",
"   ..              .....     ...     ......     ...  ......     ",
"  ...              .....     ...     ......     ...  ......     ",
".....        ...   ........  ...     ......     ...  ......  ...",
".....        ...   ........  ...     ......     ...  ......  ...",
".....      .....   ...  ...             .....   ...        .....",
".....      .....   ..   ...             .....   ...        .....",
".....      .....   ..   ...             .....   ...        .....",
".....        ........   ...          ........   .....      .....",
".....        ........   ...          ........   .....      .....",
".....        ........   ...          ........   .....      .....",
".....   ...  ......     .....        ......        ..        ...",
".....   ...  ......     .....        ......        ..        ...",
"...........     ...       ...   ........           ..        ...",
"...........     ...        ..   ........           ..        ...",
"...........     ...        ..   ........           ..        ...",
"...........                ..      .....        ........   .....",
"...........                ..      .....        ........   .....",
"...........                ..      .....        ........  ......",
"................     ...   ..      .....        ................",
"................     ...   ..      .....        ................",
".............................        ...      ..................",
".............................        ...     ...................",
".............................        ...     ..................."
};
