/* XPM */
static char *_1743_0c81c40a3dba64b11ecf5cc2eb68ec3897297882b94317a153abd1cc46d87846_0[] = {
/* columns rows colors chars-per-pixel */
"24 24 2 1 ",
"  c None",
". c white",
/* pixels */
"                        ",
"                        ",
"                        ",
"          ......        ",
"         ........       ",
"        ..........      ",
"       ....    ....     ",
"       ...      ...     ",
"      ....    .....     ",
"      ...    ......     ",
"     ...   .........    ",
"     ...  ....   ...    ",
"     ........    ...    ",
"     .......    ...     ",
"     .....      ...     ",
"     ....      ....     ",
"      ...      ...      ",
"      ...     ....      ",
"      ....   ....       ",
"       .........        ",
"        .......         ",
"         ....           ",
"                        ",
"                        "
};
