/* XPM */
static char *_4962_a8223014deffad9138206de8dbfebf3813dc1baa3c3690bd997f4bba794668d5_0[] = {
/* columns rows colors chars-per-pixel */
"24 24 2 1 ",
"  c None",
". c white",
/* pixels */
"                        ",
"                        ",
"            ..          ",
"           ....         ",
"          .....         ",
"         ......         ",
"        .......         ",
"       .... ...         ",
"       ...  ...         ",
"        .   ...         ",
"            ...         ",
"           ....         ",
"           ...          ",
"           ...          ",
"           ...          ",
"           ...          ",
"           ...          ",
"           ...          ",
"           ...          ",
"           ...          ",
"           ...          ",
"            .           ",
"                        ",
"                        "
};
