/* XPM */
static char *_676_3fab214931c0dcb23ab982e4f389c71d4beeb9d9a37590834933211712fe3e17_2[] = {
/* columns rows colors chars-per-pixel */
"24 24 2 1 ",
"  c None",
". c white",
/* pixels */
"                        ",
"                        ",
"         ........       ",
"        ..........      ",
"        .........       ",
"        ...             ",
"        ...             ",
"        ...             ",
"        ...             ",
"        ...             ",
"        ......          ",
"         .......        ",
"          .......       ",
"            ......      ",
"               ...      ",
"               ...      ",
"       .       ...      ",
"      ....    ....      ",
"       ..........       ",
"        ........        ",
"         ......         ",
"                        ",
"                        ",
"                        "
};
