/* XPM */
static char *abdd952322754e3b8ad27d69f1c0d245_2[] = {
/* columns rows colors chars-per-pixel */
"23 19 3 1 ",
"  c None",
". c #45321E",
"X c #90673E",
/* pixels */
"       XXXXXXXXX       ",
"     XXXXXXXXXXXXX     ",
"    XXXXXXXXXXXXXXXX   ",
"  XXXXXXXXXXXXXXXXXXX  ",
" XXXXXXXXXXXXXXXXXXXXX ",
" XXXXXXXXXXXXXXXXXXXXXX",
" XXXXXXXXXXXXXXXXXXXXXX",
"   XXXXXXXXXXXXXXXXXX  ",
"        XX...XX        ",
"         XX..XX        ",
"         XX..XX        ",
"         XXX.XXX       ",
"          XX..XX       ",
"          XX..XX       ",
"          XX..XX       ",
"          XX.XXX       ",
"         XXX.XXX       ",
"         XX..XX        ",
"        XXX.XXX        "
};
