/* XPM */
static char *abdd952322754e3b8ad27d69f1c0d245_0[] = {
/* columns rows colors chars-per-pixel */
"24 24 3 1 ",
"  c None",
". c #45321E",
"X c #90673E",
/* pixels */
"                        ",
"                        ",
"         XXXXXX         ",
"      XXXXXXXXXXXX      ",
"    XXXXXXXXXXXXXXXX    ",
"   XXXXXXXXXXXXXXXXXX   ",
"  XXXXXXXXXXXXXXXXXXXX  ",
" XXXXXXXXXXXXXXXXXXXXXX ",
" XXXXXXXXXXXXXXXXXXXXXX ",
"   XXXXXXXXXXXXXXXXX    ",
"        XXX..XXX        ",
"         XX..XX         ",
"         XX..XX         ",
"          XX.XXX        ",
"          XX..XX        ",
"          XX..XX        ",
"          XX..XX        ",
"          XX.XXX        ",
"         XXX.XX         ",
"         XX..XX         ",
"         XX.XXX         ",
"        XXX.XXX         ",
"        XXXXXX          ",
"                        "
};
