/* XPM */
static char *abdd952322754e3b8ad27d69f1c0d245_1[] = {
/* columns rows colors chars-per-pixel */
"21 16 3 1 ",
"  c None",
". c #45321E",
"X c #90673E",
/* pixels */
"      XXXXXXXXX      ",
"    XXXXXXXXXXXXX    ",
"   XXXXXXXXXXXXXXX   ",
" XXXXXXXXXXXXXXXXXX  ",
"XXXXXXXXXXXXXXXXXXXX ",
"XXXXXXXXXXXXXXXXXXXXX",
"XXXXXXXXXXXXXXXXXXX  ",
"  XXXXXXXXXXXXXX     ",
"      XX...XX        ",
"      XXX..XX        ",
"       XX..XX        ",
"       XXX.XXX       ",
"        XX.XXX       ",
"        XX.XXX       ",
"        XX.XXX       ",
"        XX.XX        "
};
