/* XPM */
static char *_2006_817053faae79a779dd96954909af7aac58d745ea55ce4995dd4495802b2f1d3d_2[] = {
/* columns rows colors chars-per-pixel */
"24 24 2 1 ",
"  c None",
". c white",
/* pixels */
"                        ",
"                        ",
"         ....           ",
"       ........         ",
"      ..........        ",
"      ....   ....       ",
"     ...      ...       ",
"      .       ....      ",
"               ...      ",
"               ...      ",
"              ...       ",
"             ....       ",
"            ....        ",
"           ....         ",
"         .....          ",
"       ......           ",
"      ......            ",
"     ........           ",
"      ............      ",
"       ............     ",
"            ......      ",
"                        ",
"                        ",
"                        "
};
