/* XPM */
static char *_82da9dfd3a445d0b8eef19d8fac7ca9_0[] = {
/* columns rows colors chars-per-pixel */
"24 24 2 1 ",
"  c None",
". c #5C8339",
/* pixels */
"                        ",
"                        ",
"                        ",
"             .          ",
"            ...         ",
"            ....        ",
"            .....       ",
"            ......      ",
"    ...............     ",
"   .................    ",
"   ..................   ",
"   ...................  ",
"   ...................  ",
"   ...................  ",
"    .................   ",
"     ...............    ",
"            .......     ",
"            ......      ",
"            .....       ",
"            ....        ",
"             ..         ",
"                        ",
"                        ",
"                        "
};
