/* XPM */
static char *_c1b871913734311b59639657a78076c_1[] = {
/* columns rows colors chars-per-pixel */
"18 20 2 1 ",
"  c None",
". c #90673E",
/* pixels */
"                  ",
" ..               ",
"....              ",
".....             ",
".....             ",
" ..               ",
" ..               ",
" ..           ..  ",
"            ..... ",
"           ...... ",
"             ..   ",
"             ..   ",
"             ..   ",
"              .   ",
"   ....           ",
"  ......          ",
"  ......          ",
"    ..            ",
"   ...            ",
"   ..             "
};
