/* XPM */
static char *_2014_7271ef94b84711e0fc3df0af8fd4a18120c516b421bb23e067037c1caf8cc0b0_2[] = {
/* columns rows colors chars-per-pixel */
"24 24 2 1 ",
"  c None",
". c white",
/* pixels */
"                        ",
"                ..      ",
"            .......     ",
"        ..........      ",
"       ...........      ",
"      .......  ...      ",
"       ..     ....      ",
"              ...       ",
"              ...       ",
"              ....      ",
"           ........     ",
"          ........      ",
"           ......       ",
"             ...        ",
"             ...        ",
"            ...         ",
"            ...         ",
"           ....         ",
"           ...          ",
"           ...          ",
"           ...          ",
"            .           ",
"                        ",
"                        "
};
