/* XPM */
static char *_9705_096a81c3674b1b161369586995a28fcea50df3c188d7f82b562a67d994e57cb7_2[] = {
/* columns rows colors chars-per-pixel */
"24 24 2 1 ",
"  c None",
". c white",
/* pixels */
"                        ",
"                        ",
"        .      .        ",
"       ...    ...       ",
"       ...    ...       ",
"       ...    ...       ",
"       ...    ...       ",
"       ...    ...       ",
"       ...    ...       ",
"       ...    ...       ",
"       ..........       ",
"       ..........       ",
"        .........       ",
"             ....       ",
"             ...        ",
"             ...        ",
"             ...        ",
"             ...        ",
"             ...        ",
"             ...        ",
"             ...        ",
"              .         ",
"                        ",
"                        "
};
