/* XPM */
static char *_8b97b2e1f364c7bbbe5defd037aa183_2[] = {
/* columns rows colors chars-per-pixel */
"19 24 2 1 ",
"  c None",
". c #5C8339",
/* pixels */
"                   ",
"  ..           ..  ",
"  ...          ..  ",
"  ...         ...  ",
"   ..        ....  ",
"  ...        ...   ",
" ....        ..    ",
" ...         ...   ",
"...           ...  ",
"...           .... ",
"....       ..  ... ",
" ....      ..  ... ",
"  ....     ..  ..  ",
"   ...   ....      ",
"  ....  ....       ",
"  ...   ...        ",
"  ..    ...        ",
"  ..    ....       ",
"  ..     ....      ",
"          ....     ",
"            ..     ",
"            ..     ",
"          ....     ",
"          ...      "
};
