/* XPM */
static char *_311abbe716c4529a713735178782ba5_1[] = {
/* columns rows colors chars-per-pixel */
"7 7 2 1 ",
"  c None",
". c white",
/* pixels */
"       ",
" ..... ",
"...... ",
".......",
".......",
" ..... ",
"  ...  "
};
