/* XPM */
static char *_311abbe716c4529a713735178782ba5_0[] = {
/* columns rows colors chars-per-pixel */
"24 24 2 1 ",
"  c None",
". c white",
/* pixels */
"                        ",
"                        ",
"                        ",
"                        ",
"                        ",
"                        ",
"                        ",
"                        ",
"                        ",
"         ....           ",
"         ......         ",
"        .......         ",
"        .......         ",
"        .......         ",
"          ....          ",
"                        ",
"                        ",
"                        ",
"                        ",
"                        ",
"                        ",
"                        ",
"                        ",
"                        "
};
