/* XPM */
static char *_4be9b78b63a4d669feace33d95408b1_1[] = {
/* columns rows colors chars-per-pixel */
"16 21 2 1 ",
"  c None",
". c #C29E46",
/* pixels */
"            .   ",
"           ..   ",
"          ...   ",
"          ...   ",
"         ....   ",
"         ....   ",
"         ...    ",
"   .     ...    ",
"   ..     .     ",
"   ..     .     ",
"    .     .     ",
"    ..   ..     ",
"    ..   ..    .",
"     .   ..   ..",
"     ..  .   .. ",
"..   ..  .   .. ",
" ..   . ..   .. ",
" ...  . ..  ..  ",
"  ..  . ..  ..  ",
"  ..  . ..  ..  ",
"      .  .      "
};
