/* XPM */
static char *_a65c834efd345b194442ded458960fb_0[] = {
/* columns rows colors chars-per-pixel */
"24 24 2 1 ",
"  c None",
". c #5C8339",
/* pixels */
"          .             ",
"          ..            ",
"          ..            ",
"         ....           ",
"         .....          ",
"        .......         ",
"       .........        ",
"     .............      ",
"    .............       ",
"        ......          ",
"       ........         ",
"      ..........        ",
"    ..............      ",
"   ................     ",
"       ........         ",
"       ........         ",
"      ..........        ",
"      ...........       ",
"     ..... .......      ",
"   .......  ........    ",
"  ....  .. ..   ...     ",
"        .. ..           ",
"        .. ..           ",
"        .  ..           "
};
