/* XPM */
static char *_a65c834efd345b194442ded458960fb_1[] = {
/* columns rows colors chars-per-pixel */
"18 24 2 1 ",
"  c None",
". c #5C8339",
/* pixels */
"         .        ",
"        ..        ",
"        ..        ",
"       ...        ",
"       ....       ",
"      ......      ",
"     .........    ",
"  ..............  ",
"   ............   ",
"      ......      ",
"     .......      ",
"    .........     ",
"   ............   ",
" ...............  ",
"     .......      ",
"     .......      ",
"    .........     ",
"   ...........    ",
"  .............   ",
"........ ........ ",
" ...  .. ..  .... ",
"      .. ..       ",
"      .. ..       ",
"       . .        "
};
