/* XPM */
static char *e301b5ea622947eaf512c76e862d1136LLZRDhizQ4FEga4j_0[] = {
/* columns rows colors chars-per-pixel */
"24 24 3 1 ",
"  c None",
". c #382D14",
"X c #C29E46",
/* pixels */
"                        ",
"                XXXXXX  ",
"        XXXXXXXXXXXXXX  ",
"  XXXXXXXXXXXXXXXXXXXX  ",
" XXXXXXXXXXXXX........  ",
" XXXXX.........X.XXX..  ",
" .......XX.XXX..XXXX.X  ",
" .XX.XX.XX.XX..XXXX..X  ",
" XXX.XX.XX.XX.XXXX.X.X  ",
" XXX.XX.XX.X.XXXX.XX.X  ",
" XXX.XX.XX..XXXX..XX.XX ",
" XXX.XX..X.XXXXX..XX.XX ",
" XXX.XXX..XXXXX...XX.XX ",
" XXX.XXX.XXXXX..X.XX.XX ",
"  XX..X.XXXXX..XX.XX.XX ",
"  XXX..XXXXX.X.XX.XX.XX ",
"  XXX.XXXXX.XX.XX.XX.XX ",
"  XX.XXXX..XXX.XX.XX... ",
"  X.XXXX..XXXX.......XX ",
"  .XXXX.........XXXXXXX ",
"  ......XXXXXXXXXXXXXXX ",
"  XXXXXXXXXXXXXXXXXX    ",
"   XXXXXXXXX            ",
"                        "
};
