/* XPM */
static char *e301b5ea622947eaf512c76e862d1136LLZRDhizQ4FEga4j_2[] = {
/* columns rows colors chars-per-pixel */
"24 24 3 1 ",
"  c None",
". c #382D14",
"X c #C29E46",
/* pixels */
"                        ",
"                XXXXXX  ",
"        XXXXXXXXXXXXXX  ",
" XXXXXXXXXXXXXXXXXXXX.  ",
" XXXXXXXXXXX......XX..  ",
" XXXX.......X.XX.XXX.X  ",
" .....X.XX.XX.X.XXXX.X  ",
" XX..XX.XX.XX..XXXX..X  ",
" XXX.XX.XX.X.XXXXX.X.XX ",
" XXX.XX.XX...XXXX..X.XX ",
" XXX.XX.XX.XXXXX..XX.XX ",
" XXX.XX.X.XXXXX...XX.XX ",
" XXX.XX...XXXX..X.XX.XX ",
"  XX.XX..XXXX..XX.XX.XX ",
"  XX.X..XXXX.X.XX.XX.XX ",
"  XX.X.XXXX..X.XX.XX.XX ",
"  XX..XXXX..XX.XX.XX.XX ",
"   X.XXXX.X.XX.XX.XX.XX ",
"   .XXXX..X.XX......... ",
"   .XX...........XXXXXX ",
"   XXXXXXXXXXXXXXXXXXXX ",
"   XXXXXXXXXXXXXXXXXXX  ",
"   XXXXXXXXX            ",
"                        "
};
